solid ringing_tower_60mm
  facet normal 0.000000e+00 0.000000e+00 -1.000000e+00
    outer loop
      vertex 0.000000e+00 0.000000e+00 0.000000e+00
      vertex 0.000000e+00 1.500000e+01 0.000000e+00
      vertex 1.500000e+01 1.500000e+01 0.000000e+00
    endloop
  endfacet
  facet normal 0.000000e+00 0.000000e+00 -1.000000e+00
    outer loop
      vertex 0.000000e+00 0.000000e+00 0.000000e+00
      vertex 1.500000e+01 1.500000e+01 0.000000e+00
      vertex 1.500000e+01 0.000000e+00 0.000000e+00
    endloop
  endfacet
  facet normal 0.000000e+00 0.000000e+00 1.000000e+00
    outer loop
      vertex 0.000000e+00 0.000000e+00 6.000000e+01
      vertex 1.500000e+01 0.000000e+00 6.000000e+01
      vertex 1.500000e+01 1.500000e+01 6.000000e+01
    endloop
  endfacet
  facet normal 0.000000e+00 0.000000e+00 1.000000e+00
    outer loop
      vertex 0.000000e+00 0.000000e+00 6.000000e+01
      vertex 1.500000e+01 1.500000e+01 6.000000e+01
      vertex 0.000000e+00 1.500000e+01 6.000000e+01
    endloop
  endfacet
  facet normal 0.000000e+00 -1.000000e+00 0.000000e+00
    outer loop
      vertex 0.000000e+00 0.000000e+00 0.000000e+00
      vertex 1.500000e+01 0.000000e+00 0.000000e+00
      vertex 1.500000e+01 0.000000e+00 6.000000e+01
    endloop
  endfacet
  facet normal 0.000000e+00 -1.000000e+00 0.000000e+00
    outer loop
      vertex 0.000000e+00 0.000000e+00 0.000000e+00
      vertex 1.500000e+01 0.000000e+00 6.000000e+01
      vertex 0.000000e+00 0.000000e+00 6.000000e+01
    endloop
  endfacet
  facet normal 0.000000e+00 1.000000e+00 0.000000e+00
    outer loop
      vertex 0.000000e+00 1.500000e+01 0.000000e+00
      vertex 0.000000e+00 1.500000e+01 6.000000e+01
      vertex 1.500000e+01 1.500000e+01 6.000000e+01
    endloop
  endfacet
  facet normal 0.000000e+00 1.000000e+00 0.000000e+00
    outer loop
      vertex 0.000000e+00 1.500000e+01 0.000000e+00
      vertex 1.500000e+01 1.500000e+01 6.000000e+01
      vertex 1.500000e+01 1.500000e+01 0.000000e+00
    endloop
  endfacet
  facet normal -1.000000e+00 0.000000e+00 0.000000e+00
    outer loop
      vertex 0.000000e+00 0.000000e+00 0.000000e+00
      vertex 0.000000e+00 0.000000e+00 6.000000e+01
      vertex 0.000000e+00 1.500000e+01 6.000000e+01
    endloop
  endfacet
  facet normal -1.000000e+00 0.000000e+00 0.000000e+00
    outer loop
      vertex 0.000000e+00 0.000000e+00 0.000000e+00
      vertex 0.000000e+00 1.500000e+01 6.000000e+01
      vertex 0.000000e+00 1.500000e+01 0.000000e+00
    endloop
  endfacet
  facet normal 1.000000e+00 0.000000e+00 0.000000e+00
    outer loop
      vertex 1.500000e+01 0.000000e+00 0.000000e+00
      vertex 1.500000e+01 1.500000e+01 0.000000e+00
      vertex 1.500000e+01 1.500000e+01 6.000000e+01
    endloop
  endfacet
  facet normal 1.000000e+00 0.000000e+00 0.000000e+00
    outer loop
      vertex 1.500000e+01 0.000000e+00 0.000000e+00
      vertex 1.500000e+01 1.500000e+01 6.000000e+01
      vertex 1.500000e+01 0.000000e+00 6.000000e+01
    endloop
  endfacet
  facet normal 0.000000e+00 0.000000e+00 -1.000000e+00
    outer loop
      vertex 1.300000e+01 5.000000e+00 5.000000e+00
      vertex 1.300000e+01 1.000000e+01 5.000000e+00
      vertex 2.000000e+01 1.000000e+01 5.000000e+00
    endloop
  endfacet
  facet normal 0.000000e+00 0.000000e+00 -1.000000e+00
    outer loop
      vertex 1.300000e+01 5.000000e+00 5.000000e+00
      vertex 2.000000e+01 1.000000e+01 5.000000e+00
      vertex 2.000000e+01 5.000000e+00 5.000000e+00
    endloop
  endfacet
  facet normal 0.000000e+00 0.000000e+00 1.000000e+00
    outer loop
      vertex 1.300000e+01 5.000000e+00 1.100000e+01
      vertex 2.000000e+01 5.000000e+00 1.100000e+01
      vertex 2.000000e+01 1.000000e+01 1.100000e+01
    endloop
  endfacet
  facet normal 0.000000e+00 0.000000e+00 1.000000e+00
    outer loop
      vertex 1.300000e+01 5.000000e+00 1.100000e+01
      vertex 2.000000e+01 1.000000e+01 1.100000e+01
      vertex 1.300000e+01 1.000000e+01 1.100000e+01
    endloop
  endfacet
  facet normal 0.000000e+00 -1.000000e+00 0.000000e+00
    outer loop
      vertex 1.300000e+01 5.000000e+00 5.000000e+00
      vertex 2.000000e+01 5.000000e+00 5.000000e+00
      vertex 2.000000e+01 5.000000e+00 1.100000e+01
    endloop
  endfacet
  facet normal 0.000000e+00 -1.000000e+00 0.000000e+00
    outer loop
      vertex 1.300000e+01 5.000000e+00 5.000000e+00
      vertex 2.000000e+01 5.000000e+00 1.100000e+01
      vertex 1.300000e+01 5.000000e+00 1.100000e+01
    endloop
  endfacet
  facet normal 0.000000e+00 1.000000e+00 0.000000e+00
    outer loop
      vertex 1.300000e+01 1.000000e+01 5.000000e+00
      vertex 1.300000e+01 1.000000e+01 1.100000e+01
      vertex 2.000000e+01 1.000000e+01 1.100000e+01
    endloop
  endfacet
  facet normal 0.000000e+00 1.000000e+00 0.000000e+00
    outer loop
      vertex 1.300000e+01 1.000000e+01 5.000000e+00
      vertex 2.000000e+01 1.000000e+01 1.100000e+01
      vertex 2.000000e+01 1.000000e+01 5.000000e+00
    endloop
  endfacet
  facet normal -1.000000e+00 0.000000e+00 0.000000e+00
    outer loop
      vertex 1.300000e+01 5.000000e+00 5.000000e+00
      vertex 1.300000e+01 5.000000e+00 1.100000e+01
      vertex 1.300000e+01 1.000000e+01 1.100000e+01
    endloop
  endfacet
  facet normal -1.000000e+00 0.000000e+00 0.000000e+00
    outer loop
      vertex 1.300000e+01 5.000000e+00 5.000000e+00
      vertex 1.300000e+01 1.000000e+01 1.100000e+01
      vertex 1.300000e+01 1.000000e+01 5.000000e+00
    endloop
  endfacet
  facet normal 1.000000e+00 0.000000e+00 0.000000e+00
    outer loop
      vertex 2.000000e+01 5.000000e+00 5.000000e+00
      vertex 2.000000e+01 1.000000e+01 5.000000e+00
      vertex 2.000000e+01 1.000000e+01 1.100000e+01
    endloop
  endfacet
  facet normal 1.000000e+00 0.000000e+00 0.000000e+00
    outer loop
      vertex 2.000000e+01 5.000000e+00 5.000000e+00
      vertex 2.000000e+01 1.000000e+01 1.100000e+01
      vertex 2.000000e+01 5.000000e+00 1.100000e+01
    endloop
  endfacet
  facet normal 0.000000e+00 0.000000e+00 -1.000000e+00
    outer loop
      vertex 1.300000e+01 5.000000e+00 1.500000e+01
      vertex 1.300000e+01 1.000000e+01 1.500000e+01
      vertex 2.000000e+01 1.000000e+01 1.500000e+01
    endloop
  endfacet
  facet normal 0.000000e+00 0.000000e+00 -1.000000e+00
    outer loop
      vertex 1.300000e+01 5.000000e+00 1.500000e+01
      vertex 2.000000e+01 1.000000e+01 1.500000e+01
      vertex 2.000000e+01 5.000000e+00 1.500000e+01
    endloop
  endfacet
  facet normal 0.000000e+00 0.000000e+00 1.000000e+00
    outer loop
      vertex 1.300000e+01 5.000000e+00 2.100000e+01
      vertex 2.000000e+01 5.000000e+00 2.100000e+01
      vertex 2.000000e+01 1.000000e+01 2.100000e+01
    endloop
  endfacet
  facet normal 0.000000e+00 0.000000e+00 1.000000e+00
    outer loop
      vertex 1.300000e+01 5.000000e+00 2.100000e+01
      vertex 2.000000e+01 1.000000e+01 2.100000e+01
      vertex 1.300000e+01 1.000000e+01 2.100000e+01
    endloop
  endfacet
  facet normal 0.000000e+00 -1.000000e+00 0.000000e+00
    outer loop
      vertex 1.300000e+01 5.000000e+00 1.500000e+01
      vertex 2.000000e+01 5.000000e+00 1.500000e+01
      vertex 2.000000e+01 5.000000e+00 2.100000e+01
    endloop
  endfacet
  facet normal 0.000000e+00 -1.000000e+00 0.000000e+00
    outer loop
      vertex 1.300000e+01 5.000000e+00 1.500000e+01
      vertex 2.000000e+01 5.000000e+00 2.100000e+01
      vertex 1.300000e+01 5.000000e+00 2.100000e+01
    endloop
  endfacet
  facet normal 0.000000e+00 1.000000e+00 0.000000e+00
    outer loop
      vertex 1.300000e+01 1.000000e+01 1.500000e+01
      vertex 1.300000e+01 1.000000e+01 2.100000e+01
      vertex 2.000000e+01 1.000000e+01 2.100000e+01
    endloop
  endfacet
  facet normal 0.000000e+00 1.000000e+00 0.000000e+00
    outer loop
      vertex 1.300000e+01 1.000000e+01 1.500000e+01
      vertex 2.000000e+01 1.000000e+01 2.100000e+01
      vertex 2.000000e+01 1.000000e+01 1.500000e+01
    endloop
  endfacet
  facet normal -1.000000e+00 0.000000e+00 0.000000e+00
    outer loop
      vertex 1.300000e+01 5.000000e+00 1.500000e+01
      vertex 1.300000e+01 5.000000e+00 2.100000e+01
      vertex 1.300000e+01 1.000000e+01 2.100000e+01
    endloop
  endfacet
  facet normal -1.000000e+00 0.000000e+00 0.000000e+00
    outer loop
      vertex 1.300000e+01 5.000000e+00 1.500000e+01
      vertex 1.300000e+01 1.000000e+01 2.100000e+01
      vertex 1.300000e+01 1.000000e+01 1.500000e+01
    endloop
  endfacet
  facet normal 1.000000e+00 0.000000e+00 0.000000e+00
    outer loop
      vertex 2.000000e+01 5.000000e+00 1.500000e+01
      vertex 2.000000e+01 1.000000e+01 1.500000e+01
      vertex 2.000000e+01 1.000000e+01 2.100000e+01
    endloop
  endfacet
  facet normal 1.000000e+00 0.000000e+00 0.000000e+00
    outer loop
      vertex 2.000000e+01 5.000000e+00 1.500000e+01
      vertex 2.000000e+01 1.000000e+01 2.100000e+01
      vertex 2.000000e+01 5.000000e+00 2.100000e+01
    endloop
  endfacet
  facet normal 0.000000e+00 0.000000e+00 -1.000000e+00
    outer loop
      vertex 1.300000e+01 5.000000e+00 2.500000e+01
      vertex 1.300000e+01 1.000000e+01 2.500000e+01
      vertex 2.000000e+01 1.000000e+01 2.500000e+01
    endloop
  endfacet
  facet normal 0.000000e+00 0.000000e+00 -1.000000e+00
    outer loop
      vertex 1.300000e+01 5.000000e+00 2.500000e+01
      vertex 2.000000e+01 1.000000e+01 2.500000e+01
      vertex 2.000000e+01 5.000000e+00 2.500000e+01
    endloop
  endfacet
  facet normal 0.000000e+00 0.000000e+00 1.000000e+00
    outer loop
      vertex 1.300000e+01 5.000000e+00 3.100000e+01
      vertex 2.000000e+01 5.000000e+00 3.100000e+01
      vertex 2.000000e+01 1.000000e+01 3.100000e+01
    endloop
  endfacet
  facet normal 0.000000e+00 0.000000e+00 1.000000e+00
    outer loop
      vertex 1.300000e+01 5.000000e+00 3.100000e+01
      vertex 2.000000e+01 1.000000e+01 3.100000e+01
      vertex 1.300000e+01 1.000000e+01 3.100000e+01
    endloop
  endfacet
  facet normal 0.000000e+00 -1.000000e+00 0.000000e+00
    outer loop
      vertex 1.300000e+01 5.000000e+00 2.500000e+01
      vertex 2.000000e+01 5.000000e+00 2.500000e+01
      vertex 2.000000e+01 5.000000e+00 3.100000e+01
    endloop
  endfacet
  facet normal 0.000000e+00 -1.000000e+00 0.000000e+00
    outer loop
      vertex 1.300000e+01 5.000000e+00 2.500000e+01
      vertex 2.000000e+01 5.000000e+00 3.100000e+01
      vertex 1.300000e+01 5.000000e+00 3.100000e+01
    endloop
  endfacet
  facet normal 0.000000e+00 1.000000e+00 0.000000e+00
    outer loop
      vertex 1.300000e+01 1.000000e+01 2.500000e+01
      vertex 1.300000e+01 1.000000e+01 3.100000e+01
      vertex 2.000000e+01 1.000000e+01 3.100000e+01
    endloop
  endfacet
  facet normal 0.000000e+00 1.000000e+00 0.000000e+00
    outer loop
      vertex 1.300000e+01 1.000000e+01 2.500000e+01
      vertex 2.000000e+01 1.000000e+01 3.100000e+01
      vertex 2.000000e+01 1.000000e+01 2.500000e+01
    endloop
  endfacet
  facet normal -1.000000e+00 0.000000e+00 0.000000e+00
    outer loop
      vertex 1.300000e+01 5.000000e+00 2.500000e+01
      vertex 1.300000e+01 5.000000e+00 3.100000e+01
      vertex 1.300000e+01 1.000000e+01 3.100000e+01
    endloop
  endfacet
  facet normal -1.000000e+00 0.000000e+00 0.000000e+00
    outer loop
      vertex 1.300000e+01 5.000000e+00 2.500000e+01
      vertex 1.300000e+01 1.000000e+01 3.100000e+01
      vertex 1.300000e+01 1.000000e+01 2.500000e+01
    endloop
  endfacet
  facet normal 1.000000e+00 0.000000e+00 0.000000e+00
    outer loop
      vertex 2.000000e+01 5.000000e+00 2.500000e+01
      vertex 2.000000e+01 1.000000e+01 2.500000e+01
      vertex 2.000000e+01 1.000000e+01 3.100000e+01
    endloop
  endfacet
  facet normal 1.000000e+00 0.000000e+00 0.000000e+00
    outer loop
      vertex 2.000000e+01 5.000000e+00 2.500000e+01
      vertex 2.000000e+01 1.000000e+01 3.100000e+01
      vertex 2.000000e+01 5.000000e+00 3.100000e+01
    endloop
  endfacet
  facet normal 0.000000e+00 0.000000e+00 -1.000000e+00
    outer loop
      vertex 1.300000e+01 5.000000e+00 3.500000e+01
      vertex 1.300000e+01 1.000000e+01 3.500000e+01
      vertex 2.000000e+01 1.000000e+01 3.500000e+01
    endloop
  endfacet
  facet normal 0.000000e+00 0.000000e+00 -1.000000e+00
    outer loop
      vertex 1.300000e+01 5.000000e+00 3.500000e+01
      vertex 2.000000e+01 1.000000e+01 3.500000e+01
      vertex 2.000000e+01 5.000000e+00 3.500000e+01
    endloop
  endfacet
  facet normal 0.000000e+00 0.000000e+00 1.000000e+00
    outer loop
      vertex 1.300000e+01 5.000000e+00 4.100000e+01
      vertex 2.000000e+01 5.000000e+00 4.100000e+01
      vertex 2.000000e+01 1.000000e+01 4.100000e+01
    endloop
  endfacet
  facet normal 0.000000e+00 0.000000e+00 1.000000e+00
    outer loop
      vertex 1.300000e+01 5.000000e+00 4.100000e+01
      vertex 2.000000e+01 1.000000e+01 4.100000e+01
      vertex 1.300000e+01 1.000000e+01 4.100000e+01
    endloop
  endfacet
  facet normal 0.000000e+00 -1.000000e+00 0.000000e+00
    outer loop
      vertex 1.300000e+01 5.000000e+00 3.500000e+01
      vertex 2.000000e+01 5.000000e+00 3.500000e+01
      vertex 2.000000e+01 5.000000e+00 4.100000e+01
    endloop
  endfacet
  facet normal 0.000000e+00 -1.000000e+00 0.000000e+00
    outer loop
      vertex 1.300000e+01 5.000000e+00 3.500000e+01
      vertex 2.000000e+01 5.000000e+00 4.100000e+01
      vertex 1.300000e+01 5.000000e+00 4.100000e+01
    endloop
  endfacet
  facet normal 0.000000e+00 1.000000e+00 0.000000e+00
    outer loop
      vertex 1.300000e+01 1.000000e+01 3.500000e+01
      vertex 1.300000e+01 1.000000e+01 4.100000e+01
      vertex 2.000000e+01 1.000000e+01 4.100000e+01
    endloop
  endfacet
  facet normal 0.000000e+00 1.000000e+00 0.000000e+00
    outer loop
      vertex 1.300000e+01 1.000000e+01 3.500000e+01
      vertex 2.000000e+01 1.000000e+01 4.100000e+01
      vertex 2.000000e+01 1.000000e+01 3.500000e+01
    endloop
  endfacet
  facet normal -1.000000e+00 0.000000e+00 0.000000e+00
    outer loop
      vertex 1.300000e+01 5.000000e+00 3.500000e+01
      vertex 1.300000e+01 5.000000e+00 4.100000e+01
      vertex 1.300000e+01 1.000000e+01 4.100000e+01
    endloop
  endfacet
  facet normal -1.000000e+00 0.000000e+00 0.000000e+00
    outer loop
      vertex 1.300000e+01 5.000000e+00 3.500000e+01
      vertex 1.300000e+01 1.000000e+01 4.100000e+01
      vertex 1.300000e+01 1.000000e+01 3.500000e+01
    endloop
  endfacet
  facet normal 1.000000e+00 0.000000e+00 0.000000e+00
    outer loop
      vertex 2.000000e+01 5.000000e+00 3.500000e+01
      vertex 2.000000e+01 1.000000e+01 3.500000e+01
      vertex 2.000000e+01 1.000000e+01 4.100000e+01
    endloop
  endfacet
  facet normal 1.000000e+00 0.000000e+00 0.000000e+00
    outer loop
      vertex 2.000000e+01 5.000000e+00 3.500000e+01
      vertex 2.000000e+01 1.000000e+01 4.100000e+01
      vertex 2.000000e+01 5.000000e+00 4.100000e+01
    endloop
  endfacet
  facet normal 0.000000e+00 0.000000e+00 -1.000000e+00
    outer loop
      vertex 1.300000e+01 5.000000e+00 4.500000e+01
      vertex 1.300000e+01 1.000000e+01 4.500000e+01
      vertex 2.000000e+01 1.000000e+01 4.500000e+01
    endloop
  endfacet
  facet normal 0.000000e+00 0.000000e+00 -1.000000e+00
    outer loop
      vertex 1.300000e+01 5.000000e+00 4.500000e+01
      vertex 2.000000e+01 1.000000e+01 4.500000e+01
      vertex 2.000000e+01 5.000000e+00 4.500000e+01
    endloop
  endfacet
  facet normal 0.000000e+00 0.000000e+00 1.000000e+00
    outer loop
      vertex 1.300000e+01 5.000000e+00 5.100000e+01
      vertex 2.000000e+01 5.000000e+00 5.100000e+01
      vertex 2.000000e+01 1.000000e+01 5.100000e+01
    endloop
  endfacet
  facet normal 0.000000e+00 0.000000e+00 1.000000e+00
    outer loop
      vertex 1.300000e+01 5.000000e+00 5.100000e+01
      vertex 2.000000e+01 1.000000e+01 5.100000e+01
      vertex 1.300000e+01 1.000000e+01 5.100000e+01
    endloop
  endfacet
  facet normal 0.000000e+00 -1.000000e+00 0.000000e+00
    outer loop
      vertex 1.300000e+01 5.000000e+00 4.500000e+01
      vertex 2.000000e+01 5.000000e+00 4.500000e+01
      vertex 2.000000e+01 5.000000e+00 5.100000e+01
    endloop
  endfacet
  facet normal 0.000000e+00 -1.000000e+00 0.000000e+00
    outer loop
      vertex 1.300000e+01 5.000000e+00 4.500000e+01
      vertex 2.000000e+01 5.000000e+00 5.100000e+01
      vertex 1.300000e+01 5.000000e+00 5.100000e+01
    endloop
  endfacet
  facet normal 0.000000e+00 1.000000e+00 0.000000e+00
    outer loop
      vertex 1.300000e+01 1.000000e+01 4.500000e+01
      vertex 1.300000e+01 1.000000e+01 5.100000e+01
      vertex 2.000000e+01 1.000000e+01 5.100000e+01
    endloop
  endfacet
  facet normal 0.000000e+00 1.000000e+00 0.000000e+00
    outer loop
      vertex 1.300000e+01 1.000000e+01 4.500000e+01
      vertex 2.000000e+01 1.000000e+01 5.100000e+01
      vertex 2.000000e+01 1.000000e+01 4.500000e+01
    endloop
  endfacet
  facet normal -1.000000e+00 0.000000e+00 0.000000e+00
    outer loop
      vertex 1.300000e+01 5.000000e+00 4.500000e+01
      vertex 1.300000e+01 5.000000e+00 5.100000e+01
      vertex 1.300000e+01 1.000000e+01 5.100000e+01
    endloop
  endfacet
  facet normal -1.000000e+00 0.000000e+00 0.000000e+00
    outer loop
      vertex 1.300000e+01 5.000000e+00 4.500000e+01
      vertex 1.300000e+01 1.000000e+01 5.100000e+01
      vertex 1.300000e+01 1.000000e+01 4.500000e+01
    endloop
  endfacet
  facet normal 1.000000e+00 0.000000e+00 0.000000e+00
    outer loop
      vertex 2.000000e+01 5.000000e+00 4.500000e+01
      vertex 2.000000e+01 1.000000e+01 4.500000e+01
      vertex 2.000000e+01 1.000000e+01 5.100000e+01
    endloop
  endfacet
  facet normal 1.000000e+00 0.000000e+00 0.000000e+00
    outer loop
      vertex 2.000000e+01 5.000000e+00 4.500000e+01
      vertex 2.000000e+01 1.000000e+01 5.100000e+01
      vertex 2.000000e+01 5.000000e+00 5.100000e+01
    endloop
  endfacet
  facet normal 0.000000e+00 0.000000e+00 -1.000000e+00
    outer loop
      vertex 1.300000e+01 5.000000e+00 5.500000e+01
      vertex 1.300000e+01 1.000000e+01 5.500000e+01
      vertex 2.000000e+01 1.000000e+01 5.500000e+01
    endloop
  endfacet
  facet normal 0.000000e+00 0.000000e+00 -1.000000e+00
    outer loop
      vertex 1.300000e+01 5.000000e+00 5.500000e+01
      vertex 2.000000e+01 1.000000e+01 5.500000e+01
      vertex 2.000000e+01 5.000000e+00 5.500000e+01
    endloop
  endfacet
  facet normal 0.000000e+00 0.000000e+00 1.000000e+00
    outer loop
      vertex 1.300000e+01 5.000000e+00 6.100000e+01
      vertex 2.000000e+01 5.000000e+00 6.100000e+01
      vertex 2.000000e+01 1.000000e+01 6.100000e+01
    endloop
  endfacet
  facet normal 0.000000e+00 0.000000e+00 1.000000e+00
    outer loop
      vertex 1.300000e+01 5.000000e+00 6.100000e+01
      vertex 2.000000e+01 1.000000e+01 6.100000e+01
      vertex 1.300000e+01 1.000000e+01 6.100000e+01
    endloop
  endfacet
  facet normal 0.000000e+00 -1.000000e+00 0.000000e+00
    outer loop
      vertex 1.300000e+01 5.000000e+00 5.500000e+01
      vertex 2.000000e+01 5.000000e+00 5.500000e+01
      vertex 2.000000e+01 5.000000e+00 6.100000e+01
    endloop
  endfacet
  facet normal 0.000000e+00 -1.000000e+00 0.000000e+00
    outer loop
      vertex 1.300000e+01 5.000000e+00 5.500000e+01
      vertex 2.000000e+01 5.000000e+00 6.100000e+01
      vertex 1.300000e+01 5.000000e+00 6.100000e+01
    endloop
  endfacet
  facet normal 0.000000e+00 1.000000e+00 0.000000e+00
    outer loop
      vertex 1.300000e+01 1.000000e+01 5.500000e+01
      vertex 1.300000e+01 1.000000e+01 6.100000e+01
      vertex 2.000000e+01 1.000000e+01 6.100000e+01
    endloop
  endfacet
  facet normal 0.000000e+00 1.000000e+00 0.000000e+00
    outer loop
      vertex 1.300000e+01 1.000000e+01 5.500000e+01
      vertex 2.000000e+01 1.000000e+01 6.100000e+01
      vertex 2.000000e+01 1.000000e+01 5.500000e+01
    endloop
  endfacet
  facet normal -1.000000e+00 0.000000e+00 0.000000e+00
    outer loop
      vertex 1.300000e+01 5.000000e+00 5.500000e+01
      vertex 1.300000e+01 5.000000e+00 6.100000e+01
      vertex 1.300000e+01 1.000000e+01 6.100000e+01
    endloop
  endfacet
  facet normal -1.000000e+00 0.000000e+00 0.000000e+00
    outer loop
      vertex 1.300000e+01 5.000000e+00 5.500000e+01
      vertex 1.300000e+01 1.000000e+01 6.100000e+01
      vertex 1.300000e+01 1.000000e+01 5.500000e+01
    endloop
  endfacet
  facet normal 1.000000e+00 0.000000e+00 0.000000e+00
    outer loop
      vertex 2.000000e+01 5.000000e+00 5.500000e+01
      vertex 2.000000e+01 1.000000e+01 5.500000e+01
      vertex 2.000000e+01 1.000000e+01 6.100000e+01
    endloop
  endfacet
  facet normal 1.000000e+00 0.000000e+00 0.000000e+00
    outer loop
      vertex 2.000000e+01 5.000000e+00 5.500000e+01
      vertex 2.000000e+01 1.000000e+01 6.100000e+01
      vertex 2.000000e+01 5.000000e+00 6.100000e+01
    endloop
  endfacet
endsolid ringing_tower_60mm
