solid temp_tower_70mm
  facet normal 0.000000e+00 0.000000e+00 -1.000000e+00
    outer loop
      vertex 0.000000e+00 0.000000e+00 0.000000e+00
      vertex 0.000000e+00 2.200000e+01 0.000000e+00
      vertex 2.500000e+01 2.200000e+01 0.000000e+00
    endloop
  endfacet
  facet normal 0.000000e+00 0.000000e+00 -1.000000e+00
    outer loop
      vertex 0.000000e+00 0.000000e+00 0.000000e+00
      vertex 2.500000e+01 2.200000e+01 0.000000e+00
      vertex 2.500000e+01 0.000000e+00 0.000000e+00
    endloop
  endfacet
  facet normal 0.000000e+00 0.000000e+00 1.000000e+00
    outer loop
      vertex 0.000000e+00 0.000000e+00 7.000000e+01
      vertex 2.500000e+01 0.000000e+00 7.000000e+01
      vertex 2.500000e+01 2.200000e+01 7.000000e+01
    endloop
  endfacet
  facet normal 0.000000e+00 0.000000e+00 1.000000e+00
    outer loop
      vertex 0.000000e+00 0.000000e+00 7.000000e+01
      vertex 2.500000e+01 2.200000e+01 7.000000e+01
      vertex 0.000000e+00 2.200000e+01 7.000000e+01
    endloop
  endfacet
  facet normal 0.000000e+00 -1.000000e+00 0.000000e+00
    outer loop
      vertex 0.000000e+00 0.000000e+00 0.000000e+00
      vertex 2.500000e+01 0.000000e+00 0.000000e+00
      vertex 2.500000e+01 0.000000e+00 7.000000e+01
    endloop
  endfacet
  facet normal 0.000000e+00 -1.000000e+00 0.000000e+00
    outer loop
      vertex 0.000000e+00 0.000000e+00 0.000000e+00
      vertex 2.500000e+01 0.000000e+00 7.000000e+01
      vertex 0.000000e+00 0.000000e+00 7.000000e+01
    endloop
  endfacet
  facet normal 0.000000e+00 1.000000e+00 0.000000e+00
    outer loop
      vertex 0.000000e+00 2.200000e+01 0.000000e+00
      vertex 0.000000e+00 2.200000e+01 7.000000e+01
      vertex 2.500000e+01 2.200000e+01 7.000000e+01
    endloop
  endfacet
  facet normal 0.000000e+00 1.000000e+00 0.000000e+00
    outer loop
      vertex 0.000000e+00 2.200000e+01 0.000000e+00
      vertex 2.500000e+01 2.200000e+01 7.000000e+01
      vertex 2.500000e+01 2.200000e+01 0.000000e+00
    endloop
  endfacet
  facet normal -1.000000e+00 0.000000e+00 0.000000e+00
    outer loop
      vertex 0.000000e+00 0.000000e+00 0.000000e+00
      vertex 0.000000e+00 0.000000e+00 7.000000e+01
      vertex 0.000000e+00 2.200000e+01 7.000000e+01
    endloop
  endfacet
  facet normal -1.000000e+00 0.000000e+00 0.000000e+00
    outer loop
      vertex 0.000000e+00 0.000000e+00 0.000000e+00
      vertex 0.000000e+00 2.200000e+01 7.000000e+01
      vertex 0.000000e+00 2.200000e+01 0.000000e+00
    endloop
  endfacet
  facet normal 1.000000e+00 0.000000e+00 0.000000e+00
    outer loop
      vertex 2.500000e+01 0.000000e+00 0.000000e+00
      vertex 2.500000e+01 2.200000e+01 0.000000e+00
      vertex 2.500000e+01 2.200000e+01 7.000000e+01
    endloop
  endfacet
  facet normal 1.000000e+00 0.000000e+00 0.000000e+00
    outer loop
      vertex 2.500000e+01 0.000000e+00 0.000000e+00
      vertex 2.500000e+01 2.200000e+01 7.000000e+01
      vertex 2.500000e+01 0.000000e+00 7.000000e+01
    endloop
  endfacet
  facet normal 0.000000e+00 0.000000e+00 -1.000000e+00
    outer loop
      vertex 0.000000e+00 -8.000000e+00 7.000000e+00
      vertex 0.000000e+00 2.000000e+00 7.000000e+00
      vertex 2.500000e+01 2.000000e+00 7.000000e+00
    endloop
  endfacet
  facet normal 0.000000e+00 0.000000e+00 -1.000000e+00
    outer loop
      vertex 0.000000e+00 -8.000000e+00 7.000000e+00
      vertex 2.500000e+01 2.000000e+00 7.000000e+00
      vertex 2.500000e+01 -8.000000e+00 7.000000e+00
    endloop
  endfacet
  facet normal 0.000000e+00 0.000000e+00 1.000000e+00
    outer loop
      vertex 0.000000e+00 -8.000000e+00 1.000000e+01
      vertex 2.500000e+01 -8.000000e+00 1.000000e+01
      vertex 2.500000e+01 2.000000e+00 1.000000e+01
    endloop
  endfacet
  facet normal 0.000000e+00 0.000000e+00 1.000000e+00
    outer loop
      vertex 0.000000e+00 -8.000000e+00 1.000000e+01
      vertex 2.500000e+01 2.000000e+00 1.000000e+01
      vertex 0.000000e+00 2.000000e+00 1.000000e+01
    endloop
  endfacet
  facet normal 0.000000e+00 -1.000000e+00 0.000000e+00
    outer loop
      vertex 0.000000e+00 -8.000000e+00 7.000000e+00
      vertex 2.500000e+01 -8.000000e+00 7.000000e+00
      vertex 2.500000e+01 -8.000000e+00 1.000000e+01
    endloop
  endfacet
  facet normal 0.000000e+00 -1.000000e+00 0.000000e+00
    outer loop
      vertex 0.000000e+00 -8.000000e+00 7.000000e+00
      vertex 2.500000e+01 -8.000000e+00 1.000000e+01
      vertex 0.000000e+00 -8.000000e+00 1.000000e+01
    endloop
  endfacet
  facet normal 0.000000e+00 1.000000e+00 0.000000e+00
    outer loop
      vertex 0.000000e+00 2.000000e+00 7.000000e+00
      vertex 0.000000e+00 2.000000e+00 1.000000e+01
      vertex 2.500000e+01 2.000000e+00 1.000000e+01
    endloop
  endfacet
  facet normal 0.000000e+00 1.000000e+00 0.000000e+00
    outer loop
      vertex 0.000000e+00 2.000000e+00 7.000000e+00
      vertex 2.500000e+01 2.000000e+00 1.000000e+01
      vertex 2.500000e+01 2.000000e+00 7.000000e+00
    endloop
  endfacet
  facet normal -1.000000e+00 0.000000e+00 0.000000e+00
    outer loop
      vertex 0.000000e+00 -8.000000e+00 7.000000e+00
      vertex 0.000000e+00 -8.000000e+00 1.000000e+01
      vertex 0.000000e+00 2.000000e+00 1.000000e+01
    endloop
  endfacet
  facet normal -1.000000e+00 0.000000e+00 0.000000e+00
    outer loop
      vertex 0.000000e+00 -8.000000e+00 7.000000e+00
      vertex 0.000000e+00 2.000000e+00 1.000000e+01
      vertex 0.000000e+00 2.000000e+00 7.000000e+00
    endloop
  endfacet
  facet normal 1.000000e+00 0.000000e+00 0.000000e+00
    outer loop
      vertex 2.500000e+01 -8.000000e+00 7.000000e+00
      vertex 2.500000e+01 2.000000e+00 7.000000e+00
      vertex 2.500000e+01 2.000000e+00 1.000000e+01
    endloop
  endfacet
  facet normal 1.000000e+00 0.000000e+00 0.000000e+00
    outer loop
      vertex 2.500000e+01 -8.000000e+00 7.000000e+00
      vertex 2.500000e+01 2.000000e+00 1.000000e+01
      vertex 2.500000e+01 -8.000000e+00 1.000000e+01
    endloop
  endfacet
  facet normal 0.000000e+00 0.000000e+00 -1.000000e+00
    outer loop
      vertex 0.000000e+00 -8.000000e+00 1.700000e+01
      vertex 0.000000e+00 2.000000e+00 1.700000e+01
      vertex 2.500000e+01 2.000000e+00 1.700000e+01
    endloop
  endfacet
  facet normal 0.000000e+00 0.000000e+00 -1.000000e+00
    outer loop
      vertex 0.000000e+00 -8.000000e+00 1.700000e+01
      vertex 2.500000e+01 2.000000e+00 1.700000e+01
      vertex 2.500000e+01 -8.000000e+00 1.700000e+01
    endloop
  endfacet
  facet normal 0.000000e+00 0.000000e+00 1.000000e+00
    outer loop
      vertex 0.000000e+00 -8.000000e+00 2.000000e+01
      vertex 2.500000e+01 -8.000000e+00 2.000000e+01
      vertex 2.500000e+01 2.000000e+00 2.000000e+01
    endloop
  endfacet
  facet normal 0.000000e+00 0.000000e+00 1.000000e+00
    outer loop
      vertex 0.000000e+00 -8.000000e+00 2.000000e+01
      vertex 2.500000e+01 2.000000e+00 2.000000e+01
      vertex 0.000000e+00 2.000000e+00 2.000000e+01
    endloop
  endfacet
  facet normal 0.000000e+00 -1.000000e+00 0.000000e+00
    outer loop
      vertex 0.000000e+00 -8.000000e+00 1.700000e+01
      vertex 2.500000e+01 -8.000000e+00 1.700000e+01
      vertex 2.500000e+01 -8.000000e+00 2.000000e+01
    endloop
  endfacet
  facet normal 0.000000e+00 -1.000000e+00 0.000000e+00
    outer loop
      vertex 0.000000e+00 -8.000000e+00 1.700000e+01
      vertex 2.500000e+01 -8.000000e+00 2.000000e+01
      vertex 0.000000e+00 -8.000000e+00 2.000000e+01
    endloop
  endfacet
  facet normal 0.000000e+00 1.000000e+00 0.000000e+00
    outer loop
      vertex 0.000000e+00 2.000000e+00 1.700000e+01
      vertex 0.000000e+00 2.000000e+00 2.000000e+01
      vertex 2.500000e+01 2.000000e+00 2.000000e+01
    endloop
  endfacet
  facet normal 0.000000e+00 1.000000e+00 0.000000e+00
    outer loop
      vertex 0.000000e+00 2.000000e+00 1.700000e+01
      vertex 2.500000e+01 2.000000e+00 2.000000e+01
      vertex 2.500000e+01 2.000000e+00 1.700000e+01
    endloop
  endfacet
  facet normal -1.000000e+00 0.000000e+00 0.000000e+00
    outer loop
      vertex 0.000000e+00 -8.000000e+00 1.700000e+01
      vertex 0.000000e+00 -8.000000e+00 2.000000e+01
      vertex 0.000000e+00 2.000000e+00 2.000000e+01
    endloop
  endfacet
  facet normal -1.000000e+00 0.000000e+00 0.000000e+00
    outer loop
      vertex 0.000000e+00 -8.000000e+00 1.700000e+01
      vertex 0.000000e+00 2.000000e+00 2.000000e+01
      vertex 0.000000e+00 2.000000e+00 1.700000e+01
    endloop
  endfacet
  facet normal 1.000000e+00 0.000000e+00 0.000000e+00
    outer loop
      vertex 2.500000e+01 -8.000000e+00 1.700000e+01
      vertex 2.500000e+01 2.000000e+00 1.700000e+01
      vertex 2.500000e+01 2.000000e+00 2.000000e+01
    endloop
  endfacet
  facet normal 1.000000e+00 0.000000e+00 0.000000e+00
    outer loop
      vertex 2.500000e+01 -8.000000e+00 1.700000e+01
      vertex 2.500000e+01 2.000000e+00 2.000000e+01
      vertex 2.500000e+01 -8.000000e+00 2.000000e+01
    endloop
  endfacet
  facet normal 0.000000e+00 0.000000e+00 -1.000000e+00
    outer loop
      vertex 0.000000e+00 -8.000000e+00 2.700000e+01
      vertex 0.000000e+00 2.000000e+00 2.700000e+01
      vertex 2.500000e+01 2.000000e+00 2.700000e+01
    endloop
  endfacet
  facet normal 0.000000e+00 0.000000e+00 -1.000000e+00
    outer loop
      vertex 0.000000e+00 -8.000000e+00 2.700000e+01
      vertex 2.500000e+01 2.000000e+00 2.700000e+01
      vertex 2.500000e+01 -8.000000e+00 2.700000e+01
    endloop
  endfacet
  facet normal 0.000000e+00 0.000000e+00 1.000000e+00
    outer loop
      vertex 0.000000e+00 -8.000000e+00 3.000000e+01
      vertex 2.500000e+01 -8.000000e+00 3.000000e+01
      vertex 2.500000e+01 2.000000e+00 3.000000e+01
    endloop
  endfacet
  facet normal 0.000000e+00 0.000000e+00 1.000000e+00
    outer loop
      vertex 0.000000e+00 -8.000000e+00 3.000000e+01
      vertex 2.500000e+01 2.000000e+00 3.000000e+01
      vertex 0.000000e+00 2.000000e+00 3.000000e+01
    endloop
  endfacet
  facet normal 0.000000e+00 -1.000000e+00 0.000000e+00
    outer loop
      vertex 0.000000e+00 -8.000000e+00 2.700000e+01
      vertex 2.500000e+01 -8.000000e+00 2.700000e+01
      vertex 2.500000e+01 -8.000000e+00 3.000000e+01
    endloop
  endfacet
  facet normal 0.000000e+00 -1.000000e+00 0.000000e+00
    outer loop
      vertex 0.000000e+00 -8.000000e+00 2.700000e+01
      vertex 2.500000e+01 -8.000000e+00 3.000000e+01
      vertex 0.000000e+00 -8.000000e+00 3.000000e+01
    endloop
  endfacet
  facet normal 0.000000e+00 1.000000e+00 0.000000e+00
    outer loop
      vertex 0.000000e+00 2.000000e+00 2.700000e+01
      vertex 0.000000e+00 2.000000e+00 3.000000e+01
      vertex 2.500000e+01 2.000000e+00 3.000000e+01
    endloop
  endfacet
  facet normal 0.000000e+00 1.000000e+00 0.000000e+00
    outer loop
      vertex 0.000000e+00 2.000000e+00 2.700000e+01
      vertex 2.500000e+01 2.000000e+00 3.000000e+01
      vertex 2.500000e+01 2.000000e+00 2.700000e+01
    endloop
  endfacet
  facet normal -1.000000e+00 0.000000e+00 0.000000e+00
    outer loop
      vertex 0.000000e+00 -8.000000e+00 2.700000e+01
      vertex 0.000000e+00 -8.000000e+00 3.000000e+01
      vertex 0.000000e+00 2.000000e+00 3.000000e+01
    endloop
  endfacet
  facet normal -1.000000e+00 0.000000e+00 0.000000e+00
    outer loop
      vertex 0.000000e+00 -8.000000e+00 2.700000e+01
      vertex 0.000000e+00 2.000000e+00 3.000000e+01
      vertex 0.000000e+00 2.000000e+00 2.700000e+01
    endloop
  endfacet
  facet normal 1.000000e+00 0.000000e+00 0.000000e+00
    outer loop
      vertex 2.500000e+01 -8.000000e+00 2.700000e+01
      vertex 2.500000e+01 2.000000e+00 2.700000e+01
      vertex 2.500000e+01 2.000000e+00 3.000000e+01
    endloop
  endfacet
  facet normal 1.000000e+00 0.000000e+00 0.000000e+00
    outer loop
      vertex 2.500000e+01 -8.000000e+00 2.700000e+01
      vertex 2.500000e+01 2.000000e+00 3.000000e+01
      vertex 2.500000e+01 -8.000000e+00 3.000000e+01
    endloop
  endfacet
  facet normal 0.000000e+00 0.000000e+00 -1.000000e+00
    outer loop
      vertex 0.000000e+00 -8.000000e+00 3.700000e+01
      vertex 0.000000e+00 2.000000e+00 3.700000e+01
      vertex 2.500000e+01 2.000000e+00 3.700000e+01
    endloop
  endfacet
  facet normal 0.000000e+00 0.000000e+00 -1.000000e+00
    outer loop
      vertex 0.000000e+00 -8.000000e+00 3.700000e+01
      vertex 2.500000e+01 2.000000e+00 3.700000e+01
      vertex 2.500000e+01 -8.000000e+00 3.700000e+01
    endloop
  endfacet
  facet normal 0.000000e+00 0.000000e+00 1.000000e+00
    outer loop
      vertex 0.000000e+00 -8.000000e+00 4.000000e+01
      vertex 2.500000e+01 -8.000000e+00 4.000000e+01
      vertex 2.500000e+01 2.000000e+00 4.000000e+01
    endloop
  endfacet
  facet normal 0.000000e+00 0.000000e+00 1.000000e+00
    outer loop
      vertex 0.000000e+00 -8.000000e+00 4.000000e+01
      vertex 2.500000e+01 2.000000e+00 4.000000e+01
      vertex 0.000000e+00 2.000000e+00 4.000000e+01
    endloop
  endfacet
  facet normal 0.000000e+00 -1.000000e+00 0.000000e+00
    outer loop
      vertex 0.000000e+00 -8.000000e+00 3.700000e+01
      vertex 2.500000e+01 -8.000000e+00 3.700000e+01
      vertex 2.500000e+01 -8.000000e+00 4.000000e+01
    endloop
  endfacet
  facet normal 0.000000e+00 -1.000000e+00 0.000000e+00
    outer loop
      vertex 0.000000e+00 -8.000000e+00 3.700000e+01
      vertex 2.500000e+01 -8.000000e+00 4.000000e+01
      vertex 0.000000e+00 -8.000000e+00 4.000000e+01
    endloop
  endfacet
  facet normal 0.000000e+00 1.000000e+00 0.000000e+00
    outer loop
      vertex 0.000000e+00 2.000000e+00 3.700000e+01
      vertex 0.000000e+00 2.000000e+00 4.000000e+01
      vertex 2.500000e+01 2.000000e+00 4.000000e+01
    endloop
  endfacet
  facet normal 0.000000e+00 1.000000e+00 0.000000e+00
    outer loop
      vertex 0.000000e+00 2.000000e+00 3.700000e+01
      vertex 2.500000e+01 2.000000e+00 4.000000e+01
      vertex 2.500000e+01 2.000000e+00 3.700000e+01
    endloop
  endfacet
  facet normal -1.000000e+00 0.000000e+00 0.000000e+00
    outer loop
      vertex 0.000000e+00 -8.000000e+00 3.700000e+01
      vertex 0.000000e+00 -8.000000e+00 4.000000e+01
      vertex 0.000000e+00 2.000000e+00 4.000000e+01
    endloop
  endfacet
  facet normal -1.000000e+00 0.000000e+00 0.000000e+00
    outer loop
      vertex 0.000000e+00 -8.000000e+00 3.700000e+01
      vertex 0.000000e+00 2.000000e+00 4.000000e+01
      vertex 0.000000e+00 2.000000e+00 3.700000e+01
    endloop
  endfacet
  facet normal 1.000000e+00 0.000000e+00 0.000000e+00
    outer loop
      vertex 2.500000e+01 -8.000000e+00 3.700000e+01
      vertex 2.500000e+01 2.000000e+00 3.700000e+01
      vertex 2.500000e+01 2.000000e+00 4.000000e+01
    endloop
  endfacet
  facet normal 1.000000e+00 0.000000e+00 0.000000e+00
    outer loop
      vertex 2.500000e+01 -8.000000e+00 3.700000e+01
      vertex 2.500000e+01 2.000000e+00 4.000000e+01
      vertex 2.500000e+01 -8.000000e+00 4.000000e+01
    endloop
  endfacet
  facet normal 0.000000e+00 0.000000e+00 -1.000000e+00
    outer loop
      vertex 0.000000e+00 -8.000000e+00 4.700000e+01
      vertex 0.000000e+00 2.000000e+00 4.700000e+01
      vertex 2.500000e+01 2.000000e+00 4.700000e+01
    endloop
  endfacet
  facet normal 0.000000e+00 0.000000e+00 -1.000000e+00
    outer loop
      vertex 0.000000e+00 -8.000000e+00 4.700000e+01
      vertex 2.500000e+01 2.000000e+00 4.700000e+01
      vertex 2.500000e+01 -8.000000e+00 4.700000e+01
    endloop
  endfacet
  facet normal 0.000000e+00 0.000000e+00 1.000000e+00
    outer loop
      vertex 0.000000e+00 -8.000000e+00 5.000000e+01
      vertex 2.500000e+01 -8.000000e+00 5.000000e+01
      vertex 2.500000e+01 2.000000e+00 5.000000e+01
    endloop
  endfacet
  facet normal 0.000000e+00 0.000000e+00 1.000000e+00
    outer loop
      vertex 0.000000e+00 -8.000000e+00 5.000000e+01
      vertex 2.500000e+01 2.000000e+00 5.000000e+01
      vertex 0.000000e+00 2.000000e+00 5.000000e+01
    endloop
  endfacet
  facet normal 0.000000e+00 -1.000000e+00 0.000000e+00
    outer loop
      vertex 0.000000e+00 -8.000000e+00 4.700000e+01
      vertex 2.500000e+01 -8.000000e+00 4.700000e+01
      vertex 2.500000e+01 -8.000000e+00 5.000000e+01
    endloop
  endfacet
  facet normal 0.000000e+00 -1.000000e+00 0.000000e+00
    outer loop
      vertex 0.000000e+00 -8.000000e+00 4.700000e+01
      vertex 2.500000e+01 -8.000000e+00 5.000000e+01
      vertex 0.000000e+00 -8.000000e+00 5.000000e+01
    endloop
  endfacet
  facet normal 0.000000e+00 1.000000e+00 0.000000e+00
    outer loop
      vertex 0.000000e+00 2.000000e+00 4.700000e+01
      vertex 0.000000e+00 2.000000e+00 5.000000e+01
      vertex 2.500000e+01 2.000000e+00 5.000000e+01
    endloop
  endfacet
  facet normal 0.000000e+00 1.000000e+00 0.000000e+00
    outer loop
      vertex 0.000000e+00 2.000000e+00 4.700000e+01
      vertex 2.500000e+01 2.000000e+00 5.000000e+01
      vertex 2.500000e+01 2.000000e+00 4.700000e+01
    endloop
  endfacet
  facet normal -1.000000e+00 0.000000e+00 0.000000e+00
    outer loop
      vertex 0.000000e+00 -8.000000e+00 4.700000e+01
      vertex 0.000000e+00 -8.000000e+00 5.000000e+01
      vertex 0.000000e+00 2.000000e+00 5.000000e+01
    endloop
  endfacet
  facet normal -1.000000e+00 0.000000e+00 0.000000e+00
    outer loop
      vertex 0.000000e+00 -8.000000e+00 4.700000e+01
      vertex 0.000000e+00 2.000000e+00 5.000000e+01
      vertex 0.000000e+00 2.000000e+00 4.700000e+01
    endloop
  endfacet
  facet normal 1.000000e+00 0.000000e+00 0.000000e+00
    outer loop
      vertex 2.500000e+01 -8.000000e+00 4.700000e+01
      vertex 2.500000e+01 2.000000e+00 4.700000e+01
      vertex 2.500000e+01 2.000000e+00 5.000000e+01
    endloop
  endfacet
  facet normal 1.000000e+00 0.000000e+00 0.000000e+00
    outer loop
      vertex 2.500000e+01 -8.000000e+00 4.700000e+01
      vertex 2.500000e+01 2.000000e+00 5.000000e+01
      vertex 2.500000e+01 -8.000000e+00 5.000000e+01
    endloop
  endfacet
  facet normal 0.000000e+00 0.000000e+00 -1.000000e+00
    outer loop
      vertex 0.000000e+00 -8.000000e+00 5.700000e+01
      vertex 0.000000e+00 2.000000e+00 5.700000e+01
      vertex 2.500000e+01 2.000000e+00 5.700000e+01
    endloop
  endfacet
  facet normal 0.000000e+00 0.000000e+00 -1.000000e+00
    outer loop
      vertex 0.000000e+00 -8.000000e+00 5.700000e+01
      vertex 2.500000e+01 2.000000e+00 5.700000e+01
      vertex 2.500000e+01 -8.000000e+00 5.700000e+01
    endloop
  endfacet
  facet normal 0.000000e+00 0.000000e+00 1.000000e+00
    outer loop
      vertex 0.000000e+00 -8.000000e+00 6.000000e+01
      vertex 2.500000e+01 -8.000000e+00 6.000000e+01
      vertex 2.500000e+01 2.000000e+00 6.000000e+01
    endloop
  endfacet
  facet normal 0.000000e+00 0.000000e+00 1.000000e+00
    outer loop
      vertex 0.000000e+00 -8.000000e+00 6.000000e+01
      vertex 2.500000e+01 2.000000e+00 6.000000e+01
      vertex 0.000000e+00 2.000000e+00 6.000000e+01
    endloop
  endfacet
  facet normal 0.000000e+00 -1.000000e+00 0.000000e+00
    outer loop
      vertex 0.000000e+00 -8.000000e+00 5.700000e+01
      vertex 2.500000e+01 -8.000000e+00 5.700000e+01
      vertex 2.500000e+01 -8.000000e+00 6.000000e+01
    endloop
  endfacet
  facet normal 0.000000e+00 -1.000000e+00 0.000000e+00
    outer loop
      vertex 0.000000e+00 -8.000000e+00 5.700000e+01
      vertex 2.500000e+01 -8.000000e+00 6.000000e+01
      vertex 0.000000e+00 -8.000000e+00 6.000000e+01
    endloop
  endfacet
  facet normal 0.000000e+00 1.000000e+00 0.000000e+00
    outer loop
      vertex 0.000000e+00 2.000000e+00 5.700000e+01
      vertex 0.000000e+00 2.000000e+00 6.000000e+01
      vertex 2.500000e+01 2.000000e+00 6.000000e+01
    endloop
  endfacet
  facet normal 0.000000e+00 1.000000e+00 0.000000e+00
    outer loop
      vertex 0.000000e+00 2.000000e+00 5.700000e+01
      vertex 2.500000e+01 2.000000e+00 6.000000e+01
      vertex 2.500000e+01 2.000000e+00 5.700000e+01
    endloop
  endfacet
  facet normal -1.000000e+00 0.000000e+00 0.000000e+00
    outer loop
      vertex 0.000000e+00 -8.000000e+00 5.700000e+01
      vertex 0.000000e+00 -8.000000e+00 6.000000e+01
      vertex 0.000000e+00 2.000000e+00 6.000000e+01
    endloop
  endfacet
  facet normal -1.000000e+00 0.000000e+00 0.000000e+00
    outer loop
      vertex 0.000000e+00 -8.000000e+00 5.700000e+01
      vertex 0.000000e+00 2.000000e+00 6.000000e+01
      vertex 0.000000e+00 2.000000e+00 5.700000e+01
    endloop
  endfacet
  facet normal 1.000000e+00 0.000000e+00 0.000000e+00
    outer loop
      vertex 2.500000e+01 -8.000000e+00 5.700000e+01
      vertex 2.500000e+01 2.000000e+00 5.700000e+01
      vertex 2.500000e+01 2.000000e+00 6.000000e+01
    endloop
  endfacet
  facet normal 1.000000e+00 0.000000e+00 0.000000e+00
    outer loop
      vertex 2.500000e+01 -8.000000e+00 5.700000e+01
      vertex 2.500000e+01 2.000000e+00 6.000000e+01
      vertex 2.500000e+01 -8.000000e+00 6.000000e+01
    endloop
  endfacet
  facet normal 0.000000e+00 0.000000e+00 -1.000000e+00
    outer loop
      vertex 0.000000e+00 -8.000000e+00 6.700000e+01
      vertex 0.000000e+00 2.000000e+00 6.700000e+01
      vertex 2.500000e+01 2.000000e+00 6.700000e+01
    endloop
  endfacet
  facet normal 0.000000e+00 0.000000e+00 -1.000000e+00
    outer loop
      vertex 0.000000e+00 -8.000000e+00 6.700000e+01
      vertex 2.500000e+01 2.000000e+00 6.700000e+01
      vertex 2.500000e+01 -8.000000e+00 6.700000e+01
    endloop
  endfacet
  facet normal 0.000000e+00 0.000000e+00 1.000000e+00
    outer loop
      vertex 0.000000e+00 -8.000000e+00 7.000000e+01
      vertex 2.500000e+01 -8.000000e+00 7.000000e+01
      vertex 2.500000e+01 2.000000e+00 7.000000e+01
    endloop
  endfacet
  facet normal 0.000000e+00 0.000000e+00 1.000000e+00
    outer loop
      vertex 0.000000e+00 -8.000000e+00 7.000000e+01
      vertex 2.500000e+01 2.000000e+00 7.000000e+01
      vertex 0.000000e+00 2.000000e+00 7.000000e+01
    endloop
  endfacet
  facet normal 0.000000e+00 -1.000000e+00 0.000000e+00
    outer loop
      vertex 0.000000e+00 -8.000000e+00 6.700000e+01
      vertex 2.500000e+01 -8.000000e+00 6.700000e+01
      vertex 2.500000e+01 -8.000000e+00 7.000000e+01
    endloop
  endfacet
  facet normal 0.000000e+00 -1.000000e+00 0.000000e+00
    outer loop
      vertex 0.000000e+00 -8.000000e+00 6.700000e+01
      vertex 2.500000e+01 -8.000000e+00 7.000000e+01
      vertex 0.000000e+00 -8.000000e+00 7.000000e+01
    endloop
  endfacet
  facet normal 0.000000e+00 1.000000e+00 0.000000e+00
    outer loop
      vertex 0.000000e+00 2.000000e+00 6.700000e+01
      vertex 0.000000e+00 2.000000e+00 7.000000e+01
      vertex 2.500000e+01 2.000000e+00 7.000000e+01
    endloop
  endfacet
  facet normal 0.000000e+00 1.000000e+00 0.000000e+00
    outer loop
      vertex 0.000000e+00 2.000000e+00 6.700000e+01
      vertex 2.500000e+01 2.000000e+00 7.000000e+01
      vertex 2.500000e+01 2.000000e+00 6.700000e+01
    endloop
  endfacet
  facet normal -1.000000e+00 0.000000e+00 0.000000e+00
    outer loop
      vertex 0.000000e+00 -8.000000e+00 6.700000e+01
      vertex 0.000000e+00 -8.000000e+00 7.000000e+01
      vertex 0.000000e+00 2.000000e+00 7.000000e+01
    endloop
  endfacet
  facet normal -1.000000e+00 0.000000e+00 0.000000e+00
    outer loop
      vertex 0.000000e+00 -8.000000e+00 6.700000e+01
      vertex 0.000000e+00 2.000000e+00 7.000000e+01
      vertex 0.000000e+00 2.000000e+00 6.700000e+01
    endloop
  endfacet
  facet normal 1.000000e+00 0.000000e+00 0.000000e+00
    outer loop
      vertex 2.500000e+01 -8.000000e+00 6.700000e+01
      vertex 2.500000e+01 2.000000e+00 6.700000e+01
      vertex 2.500000e+01 2.000000e+00 7.000000e+01
    endloop
  endfacet
  facet normal 1.000000e+00 0.000000e+00 0.000000e+00
    outer loop
      vertex 2.500000e+01 -8.000000e+00 6.700000e+01
      vertex 2.500000e+01 2.000000e+00 7.000000e+01
      vertex 2.500000e+01 -8.000000e+00 7.000000e+01
    endloop
  endfacet
endsolid temp_tower_70mm
